<svg width="70" height="70" viewBox="0 0 70 70" fill="none" xmlns="http://www.w3.org/2000/svg">
<g clip-path="url(#clip0_1001_53)">
<rect width="70" height="70" fill="white"/>
<g clip-path="url(#clip1_1001_53)">
<rect width="70" height="70" fill="white"/>
<g filter="url(#filter0_d_1001_53)">
<path d="M16.8385 26.0826H17.2448V25.6763H16.8385V26.0826ZM16.8385 34.8799V35.2861H17.2448V34.8799H16.8385ZM14.8688 34.8799H14.4626V35.2861H14.8688V34.8799ZM14.8688 26.0826V25.6763H14.4626V26.0826H14.8688ZM20.3007 29.7924H20.7069V29.3862H20.3007V29.7924ZM20.3007 31.315V31.7213H20.7069V31.315H20.3007ZM16.2887 31.315H15.8825V31.7213H16.2887V31.315ZM16.2887 29.7924V29.3862H15.8825V29.7924H16.2887ZM20.6874 26.0826H21.0936V25.6763H20.6874V26.0826ZM20.6874 27.6112V28.0174H21.0936V27.6112H20.6874ZM16.2887 27.6112H15.8825V28.0174H16.2887V27.6112ZM16.2887 26.0826V25.6763H15.8825V26.0826H16.2887ZM16.4323 26.0826V34.8799H17.2448V26.0826H16.4323ZM16.8385 34.4737H14.8688V35.2861H16.8385V34.4737ZM15.275 34.8799V26.0826H14.4626V34.8799H15.275ZM14.8688 26.4888H16.8385V25.6763H14.8688V26.4888ZM19.8944 29.7924V31.315H20.7069V29.7924H19.8944ZM20.3007 30.9088H16.2887V31.7213H20.3007V30.9088ZM16.6949 31.315V29.7924H15.8825V31.315H16.6949ZM16.2887 30.1986H20.3007V29.3862H16.2887V30.1986ZM20.2811 26.0826V27.6112H21.0936V26.0826H20.2811ZM20.6874 27.205H16.2887V28.0174H20.6874V27.205ZM16.6949 27.6112V26.0826H15.8825V27.6112H16.6949ZM16.2887 26.4888H20.6874V25.6763H16.2887V26.4888ZM23.2855 29.8649H23.6917V29.8496L23.6905 29.8344L23.2855 29.8649ZM23.2855 34.8799V35.2861H23.6917V34.8799H23.2855ZM21.4003 34.8799H20.9941V35.2861H21.4003V34.8799ZM21.4003 28.3423V27.9361H20.9941V28.3423H21.4003ZM23.1707 28.3423L23.5757 28.3118L23.5474 27.9361H23.1707V28.3423ZM25.2371 28.294L25.6432 28.301L25.6483 28.0083L25.3723 27.9109L25.2371 28.294ZM25.2069 30.0522L25.1466 30.454L25.6051 30.5227L25.613 30.0592L25.2069 30.0522ZM24.8927 30.022L24.8547 30.4267L24.8673 30.4275L24.8927 30.022ZM23.932 30.0945L24.0577 30.4808L24.0631 30.479L23.932 30.0945ZM23.4969 30.3483L23.2147 30.056L23.2097 30.0611L23.4969 30.3483ZM23.2432 30.7712L23.6276 30.9025L23.6285 30.8997L23.2432 30.7712ZM23.1586 31.3452L22.9794 31.7098L23.5648 31.9976V31.3452H23.1586ZM22.8021 31.17H22.3959V31.423L22.6229 31.5346L22.8021 31.17ZM23.2976 29.0553L23.6435 29.2682L23.645 29.2658L23.2976 29.0553ZM23.8897 28.439L24.1039 28.7841L23.8897 28.439ZM22.8792 29.8649V34.8799H23.6917V29.8649H22.8792ZM23.2855 34.4737H21.4003V35.2861H23.2855V34.4737ZM21.8065 34.8799V28.3423H20.9941V34.8799H21.8065ZM21.4003 28.7485H23.1707V27.9361H21.4003V28.7485ZM22.7656 28.3729L22.8804 29.8955L23.6905 29.8344L23.5757 28.3118L22.7656 28.3729ZM24.8309 28.287L24.8007 30.0453L25.613 30.0592L25.6432 28.301L24.8309 28.287ZM25.2671 29.6505C25.1703 29.636 25.0527 29.625 24.918 29.6166L24.8673 30.4275C24.9904 30.4351 25.0823 30.4443 25.1466 30.454L25.2671 29.6505ZM24.9306 29.6176C24.7936 29.6047 24.6695 29.5977 24.5604 29.5977V30.4101C24.6365 30.4101 24.7339 30.4151 24.8548 30.4265L24.9306 29.6176ZM24.5604 29.5977C24.2864 29.5977 24.0306 29.6317 23.8009 29.71L24.0631 30.479C24.1878 30.4365 24.351 30.4101 24.5604 30.4101V29.5977ZM23.8062 29.7083C23.5816 29.7814 23.3811 29.8955 23.2148 30.0561L23.7791 30.6405C23.8464 30.5755 23.9359 30.5204 24.0577 30.4808L23.8062 29.7083ZM23.2097 30.0611C23.0473 30.2235 22.9318 30.4209 22.8578 30.6428L23.6285 30.8997C23.6674 30.7832 23.721 30.6987 23.7842 30.6355L23.2097 30.0611ZM22.8587 30.64C22.7849 30.8563 22.7524 31.0936 22.7524 31.3452H23.5648C23.5648 31.1618 23.5887 31.0165 23.6276 30.9025L22.8587 30.64ZM23.3378 30.9807L22.9813 30.8055L22.6229 31.5346L22.9794 31.7098L23.3378 30.9807ZM23.2083 31.17C23.2083 30.7653 23.2481 30.4023 23.3243 30.0791L22.5336 29.8925C22.4407 30.2862 22.3959 30.7128 22.3959 31.17H23.2083ZM23.3243 30.0791C23.4009 29.7547 23.5091 29.4865 23.6435 29.2682L22.9516 28.8424C22.7637 29.1477 22.6263 29.4998 22.5336 29.8925L23.3243 30.0791ZM23.645 29.2658C23.7773 29.0475 23.9314 28.8912 24.1039 28.7841L23.6755 28.0938C23.3807 28.2768 23.1401 28.5314 22.9502 28.8447L23.645 29.2658ZM24.1039 28.7841C24.2678 28.6824 24.4583 28.6277 24.6872 28.6277V27.8152C24.3201 27.8152 23.9788 27.9056 23.6755 28.0938L24.1039 28.7841ZM24.6872 28.6277C24.767 28.6277 24.8495 28.6327 24.9349 28.6429L25.0317 27.8363C24.9157 27.8224 24.8009 27.8152 24.6872 27.8152V28.6277ZM24.9349 28.6429C25.0167 28.6527 25.0701 28.6658 25.1019 28.677L25.3723 27.9109C25.2671 27.8738 25.1513 27.8506 25.0317 27.8363L24.9349 28.6429ZM26.5301 34.0702L26.2369 34.3514L26.2408 34.3555L26.5301 34.0702ZM25.8655 30.2516L25.4801 30.1232L25.8655 30.2516ZM26.4636 29.1822L26.1569 28.9158L26.1566 28.9161L26.4636 29.1822ZM27.4424 28.4752L27.602 28.8488L27.6053 28.8474L27.4424 28.4752ZM30.0043 28.4511L29.8463 28.8253L29.8498 28.8268L30.0043 28.4511ZM30.9227 29.0976L30.6186 29.3669L30.6205 29.3691L30.9227 29.0976ZM31.4907 30.1066L31.1045 30.2327L31.1061 30.2374L31.4907 30.1066ZM31.6901 32.1972V32.6034H32.0963V32.1972H31.6901ZM26.4213 32.1972H26.0151V32.6034H26.4213V32.1972ZM26.4213 30.9827V30.5765H26.0151V30.9827H26.4213ZM29.8412 30.9827V31.3889H30.2474V30.9827H29.8412ZM29.7143 30.2335L29.3459 30.4048L29.3493 30.4118L29.7143 30.2335ZM29.3518 29.8347L29.1388 30.1808L29.1493 30.1869L29.3518 29.8347ZM27.811 30.2456L27.451 30.0574L27.4494 30.0606L27.811 30.2456ZM27.6177 30.8558L28.0178 30.926L28.018 30.9249L27.6177 30.8558ZM28.4454 33.4116L28.2797 33.7825L28.4454 33.4116ZM29.9439 33.3694L30.1005 33.7442L30.1052 33.7422L29.9439 33.3694ZM30.6448 32.8256L30.9506 32.5582L30.6316 32.1933L30.3281 32.5712L30.6448 32.8256ZM31.5269 33.8346L31.8617 34.0647L32.0404 33.8048L31.8327 33.5672L31.5269 33.8346ZM30.965 34.3965L31.2078 34.7222L31.2087 34.7215L30.965 34.3965ZM28.9711 34.5945C28.4945 34.5945 28.082 34.5188 27.7269 34.3761L27.4239 35.1299C27.8905 35.3175 28.4084 35.4069 28.9711 35.4069V34.5945ZM27.7269 34.3761C27.3632 34.2299 27.0629 34.032 26.8193 33.785L26.2408 34.3555C26.5693 34.6885 26.9658 34.9458 27.4239 35.1299L27.7269 34.3761ZM26.8233 33.7891C26.5786 33.5339 26.3919 33.2411 26.2621 32.9077L25.5051 33.2026C25.6733 33.6346 25.9177 34.0185 26.2369 34.3514L26.8233 33.7891ZM26.2621 32.9077C26.1324 32.5748 26.0662 32.2162 26.0662 31.8286H25.2538C25.2538 32.3111 25.3366 32.7702 25.5051 33.2026L26.2621 32.9077ZM26.0662 31.8286V31.599H25.2538V31.8286H26.0662ZM26.0662 31.599C26.0662 31.1499 26.1293 30.7447 26.2508 30.3801L25.4801 30.1232C25.3277 30.5803 25.2538 31.0734 25.2538 31.599H26.0662ZM26.2508 30.3801C26.3723 30.0155 26.5465 29.7068 26.7706 29.4482L26.1566 28.9161C25.8571 29.2618 25.6325 29.666 25.4801 30.1232L26.2508 30.3801ZM26.7703 29.4485C26.9944 29.1905 27.2697 28.9907 27.602 28.8488L27.2829 28.1017C26.8418 28.29 26.4646 28.5615 26.1569 28.9158L26.7703 29.4485ZM27.6053 28.8474C27.9325 28.7042 28.3166 28.6277 28.7657 28.6277V27.8152C28.2238 27.8152 27.7258 27.9079 27.2796 28.1031L27.6053 28.8474ZM28.7657 28.6277C29.1841 28.6277 29.5418 28.6967 29.8463 28.8253L30.1623 28.0768C29.7417 27.8993 29.2737 27.8152 28.7657 27.8152V28.6277ZM29.8498 28.8268C30.1574 28.9532 30.4117 29.1333 30.6186 29.3669L31.2268 28.8282C30.9343 28.498 30.5762 28.247 30.1588 28.0754L29.8498 28.8268ZM30.6205 29.3691C30.8285 29.6005 30.9912 29.8857 31.1045 30.2327L31.8768 29.9805C31.7323 29.538 31.5164 29.1506 31.2249 28.8261L30.6205 29.3691ZM31.1061 30.2374C31.2224 30.5792 31.2838 30.973 31.2838 31.4238H32.0963C32.0963 30.8997 32.0248 30.4155 31.8752 29.9758L31.1061 30.2374ZM31.2838 31.4238V32.1972H32.0963V31.4238H31.2838ZM31.6901 31.791H26.4213V32.6034H31.6901V31.791ZM26.8275 32.1972V30.9827H26.0151V32.1972H26.8275ZM26.4213 31.3889H29.8412V30.5765H26.4213V31.3889ZM30.2474 30.9827V30.8377H29.4349V30.9827H30.2474ZM30.2474 30.8377C30.2474 30.558 30.1957 30.2936 30.0793 30.0552L29.3493 30.4118C29.402 30.5198 29.4349 30.6582 29.4349 30.8377H30.2474ZM30.0826 30.0622C29.9678 29.8153 29.7901 29.6182 29.5542 29.4826L29.1493 30.1869C29.2357 30.2366 29.2997 30.3053 29.346 30.4048L30.0826 30.0622ZM29.5647 29.4888C29.3265 29.3422 29.0476 29.2835 28.7536 29.2835V30.0959C28.9429 30.0959 29.0628 30.1339 29.1389 30.1807L29.5647 29.4888ZM28.7536 29.2835C28.4676 29.2835 28.196 29.3439 27.9627 29.4913L28.3965 30.1782C28.4693 30.1322 28.5803 30.0959 28.7536 30.0959V29.2835ZM27.9627 29.4913C27.7429 29.6301 27.5733 29.8235 27.451 30.0574L28.171 30.4338C28.2341 30.3132 28.3102 30.2327 28.3965 30.1782L27.9627 29.4913ZM27.4494 30.0606C27.3385 30.2772 27.2631 30.5213 27.2174 30.7868L28.018 30.9249C28.0528 30.7231 28.1063 30.5604 28.1727 30.4306L27.4494 30.0606ZM27.2176 30.7856C27.1727 31.0414 27.151 31.3128 27.151 31.599H27.9635C27.9635 31.3535 27.9821 31.1295 28.0178 30.926L27.2176 30.7856ZM27.151 31.599V31.8286H27.9635V31.599H27.151ZM27.151 31.8286C27.151 32.1189 27.1902 32.3938 27.2739 32.6497L28.0461 32.3972C27.9928 32.2342 27.9635 32.0459 27.9635 31.8286H27.151ZM27.2739 32.6497C27.3579 32.9069 27.485 33.1366 27.6589 33.3316L28.2652 32.7908C28.1733 32.6877 28.0989 32.559 28.0461 32.3972L27.2739 32.6497ZM27.6589 33.3316C27.8315 33.5251 28.0401 33.6754 28.2797 33.7825L28.6112 33.0408C28.4722 32.9787 28.3585 32.8954 28.2652 32.7908L27.6589 33.3316ZM28.2797 33.7825C28.5291 33.894 28.8025 33.9448 29.0919 33.9448V33.1323C28.898 33.1323 28.7404 33.0985 28.6112 33.0408L28.2797 33.7825ZM29.0919 33.9448C29.4427 33.9448 29.7801 33.8781 30.1005 33.7442L29.7872 32.9945C29.5679 33.0862 29.3373 33.1323 29.0919 33.1323V33.9448ZM30.1052 33.7422C30.4401 33.5972 30.7258 33.3734 30.9615 33.08L30.3281 32.5712C30.169 32.7692 29.9875 32.9079 29.7825 32.9966L30.1052 33.7422ZM30.3389 33.0929L31.2211 34.102L31.8327 33.5672L30.9506 32.5582L30.3389 33.0929ZM31.1922 33.6045C31.0902 33.7527 30.9373 33.9095 30.7213 34.0715L31.2087 34.7215C31.4761 34.521 31.6977 34.3032 31.8617 34.0647L31.1922 33.6045ZM30.7222 34.0709C30.5246 34.2182 30.2784 34.345 29.9772 34.4466L30.2369 35.2165C30.6043 35.0925 30.9301 34.9293 31.2078 34.7222L30.7222 34.0709ZM29.9772 34.4466C29.692 34.5428 29.3584 34.5945 28.9711 34.5945V35.4069C29.4297 35.4069 29.8533 35.3458 30.2369 35.2165L29.9772 34.4466ZM33.2489 34.0702L32.9557 34.3514L32.9597 34.3555L33.2489 34.0702ZM32.5843 30.2516L32.1989 30.1232L32.5843 30.2516ZM33.1825 29.1822L32.8757 28.9158L32.8755 28.9161L33.1825 29.1822ZM34.1613 28.4752L34.3208 28.8488L34.3241 28.8474L34.1613 28.4752ZM36.7231 28.4511L36.5651 28.8253L36.5687 28.8268L36.7231 28.4511ZM37.6415 29.0976L37.3374 29.3669L37.3394 29.3691L37.6415 29.0976ZM38.2095 30.1066L37.8233 30.2327L37.8249 30.2374L38.2095 30.1066ZM38.4089 32.1972V32.6034H38.8151V32.1972H38.4089ZM33.1402 32.1972H32.7339V32.6034H33.1402V32.1972ZM33.1402 30.9827V30.5765H32.7339V30.9827H33.1402ZM36.56 30.9827V31.3889H36.9662V30.9827H36.56ZM36.4331 30.2335L36.0647 30.4048L36.0681 30.4118L36.4331 30.2335ZM36.0706 29.8347L35.8576 30.1808L35.8681 30.1869L36.0706 29.8347ZM34.5298 30.2456L34.1698 30.0574L34.1682 30.0606L34.5298 30.2456ZM34.3365 30.8558L34.7366 30.926L34.7368 30.9249L34.3365 30.8558ZM35.1643 33.4116L34.9986 33.7825L35.1643 33.4116ZM36.6627 33.3694L36.8194 33.7442L36.8241 33.7422L36.6627 33.3694ZM37.3636 32.8256L37.6694 32.5582L37.3504 32.1933L37.0469 32.5712L37.3636 32.8256ZM38.2458 33.8346L38.5805 34.0647L38.7592 33.8048L38.5516 33.5672L38.2458 33.8346ZM37.6838 34.3965L37.9267 34.7222L37.9276 34.7215L37.6838 34.3965ZM35.6899 34.5945C35.2134 34.5945 34.8008 34.5188 34.4457 34.3761L34.1427 35.1299C34.6093 35.3175 35.1273 35.4069 35.6899 35.4069V34.5945ZM34.4457 34.3761C34.082 34.2299 33.7817 34.032 33.5382 33.785L32.9597 34.3555C33.2881 34.6885 33.6847 34.9458 34.1427 35.1299L34.4457 34.3761ZM33.5421 33.7891C33.2974 33.5339 33.1108 33.2411 32.9809 32.9077L32.2239 33.2026C32.3921 33.6346 32.6365 34.0185 32.9557 34.3514L33.5421 33.7891ZM32.9809 32.9077C32.8513 32.5748 32.7851 32.2162 32.7851 31.8286H31.9726C31.9726 32.3111 32.0555 32.7702 32.2239 33.2026L32.9809 32.9077ZM32.7851 31.8286V31.599H31.9726V31.8286H32.7851ZM32.7851 31.599C32.7851 31.1499 32.8481 30.7447 32.9697 30.3801L32.1989 30.1232C32.0465 30.5803 31.9726 31.0734 31.9726 31.599H32.7851ZM32.9697 30.3801C33.0912 30.0155 33.2653 29.7068 33.4894 29.4482L32.8755 28.9161C32.5759 29.2618 32.3513 29.666 32.1989 30.1232L32.9697 30.3801ZM33.4892 29.4485C33.7132 29.1905 33.9885 28.9907 34.3208 28.8488L34.0017 28.1017C33.5607 28.29 33.1834 28.5615 32.8757 28.9158L33.4892 29.4485ZM34.3241 28.8474C34.6513 28.7042 35.0355 28.6277 35.4845 28.6277V27.8152C34.9426 27.8152 34.4446 27.9079 33.9985 28.1031L34.3241 28.8474ZM35.4845 28.6277C35.9029 28.6277 36.2606 28.6967 36.5651 28.8253L36.8811 28.0768C36.4606 27.8993 35.9925 27.8152 35.4845 27.8152V28.6277ZM36.5687 28.8268C36.8763 28.9532 37.1305 29.1333 37.3374 29.3669L37.9456 28.8282C37.6531 28.498 37.2951 28.247 36.8776 28.0754L36.5687 28.8268ZM37.3394 29.3691C37.5473 29.6005 37.71 29.8857 37.8233 30.2327L38.5957 29.9805C38.4512 29.538 38.2353 29.1506 37.9437 28.8261L37.3394 29.3691ZM37.8249 30.2374C37.9412 30.5792 38.0027 30.973 38.0027 31.4238H38.8151C38.8151 30.8997 38.7437 30.4155 38.5941 29.9758L37.8249 30.2374ZM38.0027 31.4238V32.1972H38.8151V31.4238H38.0027ZM38.4089 31.791H33.1402V32.6034H38.4089V31.791ZM33.5464 32.1972V30.9827H32.7339V32.1972H33.5464ZM33.1402 31.3889H36.56V30.5765H33.1402V31.3889ZM36.9662 30.9827V30.8377H36.1538V30.9827H36.9662ZM36.9662 30.8377C36.9662 30.558 36.9145 30.2936 36.7981 30.0552L36.0681 30.4118C36.1209 30.5198 36.1538 30.6582 36.1538 30.8377H36.9662ZM36.8014 30.0622C36.6866 29.8153 36.5089 29.6182 36.2731 29.4826L35.8681 30.1869C35.9545 30.2366 36.0185 30.3053 36.0648 30.4048L36.8014 30.0622ZM36.2835 29.4888C36.0454 29.3422 35.7665 29.2835 35.4724 29.2835V30.0959C35.6617 30.0959 35.7816 30.1339 35.8577 30.1807L36.2835 29.4888ZM35.4724 29.2835C35.1865 29.2835 34.9148 29.3439 34.6815 29.4913L35.1153 30.1782C35.1881 30.1322 35.2992 30.0959 35.4724 30.0959V29.2835ZM34.6815 29.4913C34.4617 29.6301 34.2921 29.8235 34.1698 30.0574L34.8899 30.4338C34.9529 30.3132 35.029 30.2327 35.1153 30.1782L34.6815 29.4913ZM34.1682 30.0606C34.0574 30.2772 33.982 30.5213 33.9362 30.7868L34.7368 30.9249C34.7716 30.7231 34.8251 30.5604 34.8915 30.4306L34.1682 30.0606ZM33.9364 30.7856C33.8915 31.0414 33.8699 31.3128 33.8699 31.599H34.6823C34.6823 31.3535 34.7009 31.1295 34.7366 30.926L33.9364 30.7856ZM33.8699 31.599V31.8286H34.6823V31.599H33.8699ZM33.8699 31.8286C33.8699 32.1189 33.909 32.3938 33.9927 32.6497L34.7649 32.3972C34.7116 32.2342 34.6823 32.0459 34.6823 31.8286H33.8699ZM33.9927 32.6497C34.0768 32.9069 34.2038 33.1366 34.3777 33.3316L34.9841 32.7908C34.8921 32.6877 34.8178 32.559 34.7649 32.3972L33.9927 32.6497ZM34.3777 33.3316C34.5503 33.5251 34.7589 33.6754 34.9986 33.7825L35.33 33.0408C35.191 32.9787 35.0773 32.8954 34.9841 32.7908L34.3777 33.3316ZM34.9986 33.7825C35.2479 33.894 35.5214 33.9448 35.8108 33.9448V33.1323C35.6168 33.1323 35.4592 33.0985 35.33 33.0408L34.9986 33.7825ZM35.8108 33.9448C36.1616 33.9448 36.4989 33.8781 36.8194 33.7442L36.5061 32.9945C36.2868 33.0862 36.0561 33.1323 35.8108 33.1323V33.9448ZM36.8241 33.7422C37.1589 33.5972 37.4446 33.3734 37.6803 33.08L37.0469 32.5712C36.8879 32.7692 36.7063 32.9079 36.5014 32.9966L36.8241 33.7422ZM37.0578 33.0929L37.9399 34.102L38.5516 33.5672L37.6694 32.5582L37.0578 33.0929ZM37.911 33.6045C37.8091 33.7527 37.6561 33.9095 37.4401 34.0715L37.9276 34.7215C38.1949 34.521 38.4166 34.3032 38.5805 34.0647L37.911 33.6045ZM37.441 34.0709C37.2434 34.2182 36.9973 34.345 36.696 34.4466L36.9557 35.2165C37.3231 35.0925 37.6489 34.9293 37.9267 34.7222L37.441 34.0709ZM36.696 34.4466C36.4109 34.5428 36.0772 34.5945 35.6899 34.5945V35.4069C36.1485 35.4069 36.5722 35.3458 36.9557 35.2165L36.696 34.4466Z" fill="black"/>
<path d="M27.1056 42.0866C27.1056 41.9554 27.0863 41.8377 27.0477 41.7335C27.0091 41.6254 26.9377 41.5251 26.8335 41.4324C26.7293 41.3398 26.5788 41.2472 26.382 41.1545C26.189 41.058 25.9342 40.9577 25.6177 40.8535C25.2472 40.73 24.8902 40.591 24.5467 40.4366C24.2032 40.2784 23.8964 40.0951 23.6262 39.8866C23.356 39.6744 23.1418 39.4274 22.9836 39.1456C22.8253 38.86 22.7462 38.5281 22.7462 38.1498C22.7462 37.787 22.8272 37.4609 22.9893 37.1714C23.1514 36.8781 23.3772 36.6291 23.6667 36.4246C23.96 36.2161 24.3035 36.0579 24.6972 35.9498C25.0909 35.8379 25.5213 35.7819 25.9883 35.7819C26.6058 35.7819 27.15 35.89 27.6209 36.1061C28.0956 36.3184 28.4662 36.6214 28.7325 37.0151C29.0026 37.4049 29.1377 37.8661 29.1377 38.3988H27.1172C27.1172 38.1865 27.0728 37.9993 26.9841 37.8372C26.8991 37.6751 26.7698 37.5477 26.5962 37.4551C26.4225 37.3625 26.2044 37.3161 25.942 37.3161C25.6872 37.3161 25.473 37.3547 25.2993 37.4319C25.1256 37.5091 24.9944 37.6133 24.9056 37.7446C24.8169 37.8719 24.7725 38.0128 24.7725 38.1672C24.7725 38.2946 24.8072 38.4103 24.8767 38.5146C24.95 38.6149 25.0523 38.7095 25.1835 38.7982C25.3186 38.887 25.4807 38.9719 25.6699 39.053C25.8628 39.134 26.079 39.2131 26.3183 39.2903C26.766 39.4331 27.1635 39.5933 27.5109 39.7709C27.8621 39.9445 28.1574 40.1433 28.3967 40.3672C28.6398 40.5872 28.8232 40.838 28.9467 41.1198C29.074 41.4016 29.1377 41.72 29.1377 42.0751C29.1377 42.4533 29.0644 42.7891 28.9177 43.0824C28.7711 43.3758 28.5607 43.6247 28.2867 43.8293C28.0126 44.03 27.6846 44.1824 27.3025 44.2866C26.9204 44.3908 26.4939 44.4429 26.023 44.4429C25.5907 44.4429 25.1642 44.3889 24.7435 44.2808C24.3267 44.1689 23.9485 43.9991 23.6088 43.7714C23.2692 43.5398 22.9971 43.2445 22.7925 42.8856C22.5918 42.5228 22.4915 42.0924 22.4915 41.5945H24.5293C24.5293 41.8415 24.5621 42.05 24.6278 42.2198C24.6934 42.3896 24.7899 42.5266 24.9172 42.6308C25.0446 42.7312 25.2009 42.8045 25.3862 42.8508C25.5714 42.8933 25.7837 42.9145 26.023 42.9145C26.2816 42.9145 26.49 42.8779 26.6483 42.8045C26.8065 42.7273 26.9223 42.627 26.9956 42.5035C27.069 42.3761 27.1056 42.2372 27.1056 42.0866ZM32.0614 39.2672V46.7356H30.1104V38.063H31.9282L32.0614 39.2672ZM35.9056 41.1198V41.2414C35.9056 41.6968 35.8535 42.1194 35.7493 42.5093C35.6451 42.8991 35.4907 43.2387 35.2861 43.5282C35.0816 43.8177 34.8268 44.0435 34.5219 44.2056C34.2209 44.3638 33.8716 44.4429 33.474 44.4429C33.0996 44.4429 32.7774 44.36 32.5072 44.194C32.237 44.028 32.0112 43.7984 31.8298 43.505C31.6484 43.2117 31.5017 42.8759 31.3898 42.4977C31.2779 42.1194 31.1891 41.72 31.1235 41.2993V41.143C31.1891 40.6914 31.2779 40.2726 31.3898 39.8866C31.5017 39.4968 31.6484 39.1572 31.8298 38.8677C32.0112 38.5782 32.2351 38.3524 32.5014 38.1903C32.7716 38.0282 33.0938 37.9472 33.4682 37.9472C33.8658 37.9472 34.2151 38.0224 34.5161 38.173C34.821 38.3235 35.0758 38.5396 35.2803 38.8214C35.4887 39.0993 35.6451 39.4331 35.7493 39.823C35.8535 40.2128 35.9056 40.6451 35.9056 41.1198ZM33.9545 41.2414V41.1198C33.9545 40.8766 33.9372 40.6547 33.9024 40.454C33.8677 40.2495 33.8117 40.0719 33.7345 39.9214C33.6612 39.7709 33.5628 39.6551 33.4393 39.574C33.3158 39.493 33.1633 39.4524 32.9819 39.4524C32.7735 39.4524 32.5979 39.4852 32.4551 39.5509C32.3161 39.6126 32.2042 39.7091 32.1193 39.8403C32.0382 39.9677 31.9803 40.1279 31.9456 40.3209C31.9147 40.51 31.9012 40.7319 31.9051 40.9866V41.4614C31.8974 41.7547 31.9263 42.0133 31.9919 42.2372C32.0575 42.4572 32.1714 42.6289 32.3335 42.7524C32.4956 42.8759 32.7156 42.9377 32.9935 42.9377C33.1788 42.9377 33.3331 42.8952 33.4566 42.8103C33.5802 42.7215 33.6786 42.6 33.7519 42.4456C33.8252 42.2873 33.8773 42.1059 33.9082 41.9014C33.9391 41.6968 33.9545 41.4768 33.9545 41.2414ZM40.0277 42.7524V40.1703C40.0277 39.9928 40.0026 39.8403 39.9524 39.713C39.9022 39.5856 39.8231 39.4872 39.715 39.4177C39.607 39.3444 39.4622 39.3077 39.2808 39.3077C39.1342 39.3077 39.0087 39.3328 38.9045 39.383C38.8003 39.4331 38.7212 39.5084 38.6671 39.6088C38.6131 39.7091 38.5861 39.8365 38.5861 39.9909H36.6351C36.6351 39.7014 36.6987 39.4331 36.8261 39.1861C36.9573 38.9353 37.1426 38.7172 37.3819 38.5319C37.625 38.3467 37.9145 38.2039 38.2503 38.1035C38.59 37.9993 38.9682 37.9472 39.385 37.9472C39.8829 37.9472 40.3268 38.0302 40.7166 38.1961C41.1103 38.3621 41.421 38.611 41.6487 38.943C41.8764 39.271 41.9903 39.684 41.9903 40.1819V42.7466C41.9903 43.1558 42.0134 43.4665 42.0598 43.6787C42.1061 43.8872 42.1717 44.0705 42.2566 44.2287V44.3271H40.2998C40.2071 44.1342 40.1377 43.8987 40.0913 43.6208C40.0489 43.3391 40.0277 43.0496 40.0277 42.7524ZM40.265 40.5003L40.2766 41.5424H39.414C39.2326 41.5424 39.0782 41.5675 38.9508 41.6177C38.8273 41.6679 38.727 41.7373 38.6498 41.8261C38.5764 41.911 38.5224 42.0075 38.4877 42.1156C38.4568 42.2237 38.4414 42.3375 38.4414 42.4572C38.4414 42.5729 38.4684 42.6772 38.5224 42.7698C38.5803 42.8586 38.6575 42.928 38.754 42.9782C38.8505 43.0284 38.9585 43.0535 39.0782 43.0535C39.2943 43.0535 39.4777 43.0129 39.6282 42.9319C39.7826 42.847 39.9003 42.7447 39.9813 42.6251C40.0624 42.5054 40.1029 42.3935 40.1029 42.2893L40.5313 43.0882C40.4542 43.2426 40.3654 43.3989 40.265 43.5572C40.1685 43.7154 40.047 43.8621 39.9003 43.9972C39.7575 44.1284 39.5819 44.2364 39.3735 44.3214C39.165 44.4024 38.9122 44.4429 38.615 44.4429C38.2291 44.4429 37.874 44.3638 37.5498 44.2056C37.2294 44.0473 36.9728 43.8273 36.7798 43.5456C36.5868 43.26 36.4903 42.9319 36.4903 42.5614C36.4903 42.2372 36.5482 41.9477 36.664 41.693C36.7836 41.4382 36.9631 41.2221 37.2024 41.0445C37.4417 40.867 37.7466 40.7319 38.1171 40.6393C38.4877 40.5466 38.9238 40.5003 39.4256 40.5003H40.265ZM45.7187 42.9377C45.9001 42.9377 46.0545 42.9049 46.1818 42.8393C46.3131 42.7698 46.4115 42.6733 46.4771 42.5498C46.5466 42.4224 46.5794 42.27 46.5755 42.0924H48.4108C48.4146 42.5633 48.2988 42.9763 48.0634 43.3314C47.8318 43.6826 47.5153 43.9566 47.1139 44.1535C46.7164 44.3464 46.2667 44.4429 45.765 44.4429C45.2748 44.4429 44.8464 44.3638 44.4797 44.2056C44.1131 44.0435 43.8062 43.8196 43.5592 43.534C43.3161 43.2445 43.1327 42.9068 43.0092 42.5208C42.8896 42.1349 42.8297 41.7161 42.8297 41.2645V41.1314C42.8297 40.6798 42.8896 40.261 43.0092 39.8751C43.1327 39.4852 43.3161 39.1475 43.5592 38.8619C43.8062 38.5724 44.1111 38.3486 44.474 38.1903C44.8406 38.0282 45.2671 37.9472 45.7534 37.9472C46.2745 37.9472 46.7338 38.0456 47.1313 38.2424C47.5327 38.4393 47.8473 38.7249 48.075 39.0993C48.3027 39.4737 48.4146 39.9272 48.4108 40.4598H46.5755C46.5794 40.2707 46.5504 40.1009 46.4887 39.9503C46.4269 39.7998 46.3304 39.6802 46.1992 39.5914C46.0718 39.4988 45.9078 39.4524 45.7071 39.4524C45.5064 39.4524 45.3443 39.4968 45.2208 39.5856C45.0973 39.6744 45.0027 39.7979 44.9371 39.9561C44.8754 40.1105 44.8329 40.2881 44.8097 40.4888C44.7904 40.6895 44.7808 40.9037 44.7808 41.1314V41.2645C44.7808 41.4961 44.7904 41.7142 44.8097 41.9187C44.8329 42.1194 44.8773 42.297 44.9429 42.4514C45.0085 42.6019 45.1031 42.7215 45.2266 42.8103C45.3501 42.8952 45.5141 42.9377 45.7187 42.9377ZM52.2781 44.4429C51.7686 44.4429 51.3132 44.3638 50.9118 44.2056C50.5104 44.0435 50.1708 43.8215 49.8929 43.5398C49.6188 43.258 49.4085 42.9338 49.2618 42.5672C49.119 42.2005 49.0476 41.8126 49.0476 41.4035V41.1835C49.0476 40.7242 49.1113 40.2996 49.2387 39.9098C49.366 39.5161 49.5551 39.1726 49.806 38.8793C50.0569 38.586 50.3715 38.3582 50.7497 38.1961C51.1279 38.0302 51.5679 37.9472 52.0697 37.9472C52.5136 37.9472 52.9111 38.0186 53.2623 38.1614C53.6135 38.3042 53.9107 38.5088 54.1539 38.7751C54.4009 39.0414 54.5881 39.3637 54.7155 39.7419C54.8467 40.1202 54.9123 40.5447 54.9123 41.0156V41.8087H49.7944V40.5872H53.0076V40.4366C53.0114 40.2282 52.9748 40.0507 52.8976 39.904C52.8243 39.7574 52.7162 39.6454 52.5734 39.5682C52.4306 39.491 52.2569 39.4524 52.0523 39.4524C51.84 39.4524 51.6644 39.4988 51.5255 39.5914C51.3904 39.684 51.2843 39.8114 51.2071 39.9735C51.1337 40.1317 51.0816 40.3151 51.0508 40.5235C51.0199 40.7319 51.0044 40.9519 51.0044 41.1835V41.4035C51.0044 41.6351 51.0353 41.8454 51.0971 42.0345C51.1627 42.2237 51.2553 42.3858 51.375 42.5208C51.4985 42.6521 51.6451 42.7544 51.815 42.8277C51.9886 42.901 52.1855 42.9377 52.4055 42.9377C52.6718 42.9377 52.9343 42.8875 53.1928 42.7872C53.4514 42.6868 53.6734 42.5208 53.8586 42.2893L54.7444 43.3429C54.617 43.5243 54.4356 43.7 54.2002 43.8698C53.9686 44.0396 53.6907 44.1786 53.3665 44.2866C53.0423 44.3908 52.6795 44.4429 52.2781 44.4429Z" fill="black"/>
</g>
<path d="M33.3833 -13.6227C35.9781 -10.1714 36.0557 -5.27208 33.9829 -0.085186C31.9127 5.09536 27.7144 10.5066 21.867 14.903C16.0196 19.2993 9.65528 21.8296 4.10358 22.3796C-1.45492 22.9303 -6.13999 21.4951 -8.73486 18.0438C-11.3297 14.5925 -11.4073 9.69315 -9.33452 4.50626C-7.26432 -0.674293 -3.06599 -6.08552 2.78139 -10.4819C8.62877 -14.8782 14.9931 -17.4086 20.5448 -17.9585C26.1033 -18.5092 30.7884 -17.074 33.3833 -13.6227Z" stroke="black" stroke-width="0.648148"/>
<path d="M-5.48402 66.6461C-4.39274 60.718 0.353331 55.9968 7.2354 53.185C14.1135 50.3747 23.083 49.4938 32.509 51.229C41.9349 52.9642 50.0027 56.9814 55.4292 62.0567C60.8588 67.135 63.6126 73.2367 62.5213 79.1649C61.43 85.093 56.6839 89.8141 49.8019 92.626C42.9237 95.4362 33.9542 96.3171 24.5283 94.582C15.1024 92.8468 7.03458 88.8296 1.60805 83.7542C-3.82157 78.676 -6.5753 72.5742 -5.48402 66.6461Z" stroke="black" stroke-width="0.648148"/>
<path d="M87.0248 -20.3451C92.407 -18.2148 96.043 -13.0219 97.5205 -6.2546C98.9972 0.509525 98.3011 8.79758 95.0563 16.9954C91.8116 25.1932 86.6468 31.7125 80.9407 35.6336C75.232 39.5566 69.0269 40.8543 63.6447 38.7239C58.2625 36.5936 54.6264 31.4008 53.149 24.6334C51.6723 17.8693 52.3684 9.58126 55.6131 1.38343C58.8579 -6.81439 64.0227 -13.3337 69.7288 -17.2548C75.4375 -21.1778 81.6425 -22.4754 87.0248 -20.3451Z" stroke="black" stroke-width="0.865724"/>
</g>
</g>
<defs>
<filter id="filter0_d_1001_53" x="14.6149" y="26.083" width="40.5515" height="21.1609" filterUnits="userSpaceOnUse" color-interpolation-filters="sRGB">
<feFlood flood-opacity="0" result="BackgroundImageFix"/>
<feColorMatrix in="SourceAlpha" type="matrix" values="0 0 0 0 0 0 0 0 0 0 0 0 0 0 0 0 0 0 127 0" result="hardAlpha"/>
<feOffset dy="0.254265"/>
<feGaussianBlur stdDeviation="0.127133"/>
<feComposite in2="hardAlpha" operator="out"/>
<feColorMatrix type="matrix" values="0 0 0 0 0 0 0 0 0 0 0 0 0 0 0 0 0 0 0.5 0"/>
<feBlend mode="normal" in2="BackgroundImageFix" result="effect1_dropShadow_1001_53"/>
<feBlend mode="normal" in="SourceGraphic" in2="effect1_dropShadow_1001_53" result="shape"/>
</filter>
<clipPath id="clip0_1001_53">
<rect width="70" height="70" fill="white"/>
</clipPath>
<clipPath id="clip1_1001_53">
<rect width="70" height="70" fill="white"/>
</clipPath>
</defs>
</svg>
